<svg width="48" height="48" viewBox="0 0 48 48" fill="none" xmlns="http://www.w3.org/2000/svg">
<path d="M33.4287 16.9334H29.7859L28.918 14.5012C28.858 14.3348 28.7482 14.1909 28.6034 14.0893C28.4586 13.9877 28.286 13.9332 28.1091 13.9333H19.8912C19.5296 13.9333 19.2055 14.161 19.085 14.5012L18.2144 16.9334H14.5716C13.3876 16.9334 12.4287 17.8923 12.4287 19.0762V31.2905C12.4287 32.4744 13.3876 33.4334 14.5716 33.4334H33.4287C34.6126 33.4334 35.5716 32.4744 35.5716 31.2905V19.0762C35.5716 17.8923 34.6126 16.9334 33.4287 16.9334ZM33.643 31.2905C33.643 31.4084 33.5466 31.5048 33.4287 31.5048H14.5716C14.4537 31.5048 14.3573 31.4084 14.3573 31.2905V19.0762C14.3573 18.9584 14.4537 18.8619 14.5716 18.8619H19.5725L20.0305 17.5816L20.6439 15.8619H27.3537L27.9671 17.5816L28.4251 18.8619H33.4287C33.5466 18.8619 33.643 18.9584 33.643 19.0762V31.2905ZM24.0001 20.5762C21.6323 20.5762 19.7144 22.4941 19.7144 24.8619C19.7144 27.2298 21.6323 29.1476 24.0001 29.1476C26.368 29.1476 28.2859 27.2298 28.2859 24.8619C28.2859 22.4941 26.368 20.5762 24.0001 20.5762ZM24.0001 27.4334C22.5805 27.4334 21.4287 26.2816 21.4287 24.8619C21.4287 23.4423 22.5805 22.2905 24.0001 22.2905C25.4198 22.2905 26.5716 23.4423 26.5716 24.8619C26.5716 26.2816 25.4198 27.4334 24.0001 27.4334Z" fill="#333333"/>
</svg>
